<?xml version="1.0" standalone="no"?><!DOCTYPE svg PUBLIC "-//W3C//DTD SVG 1.1//EN" "http://www.w3.org/Graphics/SVG/1.1/DTD/svg11.dtd"><svg class="icon" width="128px" height="128.00px" viewBox="0 0 1024 1024" version="1.1" xmlns="http://www.w3.org/2000/svg"><path d="M518.203112 448.20525c64.463713 0 116.886091-49.746526 116.886091-110.682979 0-61.058083-52.422378-110.682979-116.886091-110.682979-64.463713 0-116.886091 49.746526-116.886091 110.682979s52.422378 110.682979 116.886091 110.682979zM905.593538 721.385438c-22.744744-17.14978-54.611712-32.231857-94.871124-45.00297-33.326523-10.581779-71.153344-19.217484-112.142535-25.663855-10.21689-1.702815-20.312151 3.648889-24.934078 12.892742-7.05452 14.352298 1.702815 31.380449 17.514669 33.813042 39.529635 6.081482 75.8969 14.352298 107.763868 24.569189 73.221048 23.231263 105.817793 52.057489 105.817793 70.301936s-32.718375 47.070673-105.817793 70.301936c-76.383418 24.325929-178.309063 37.705191-287.045968 37.705191s-210.662549-13.379261-287.045967-37.705191c-73.221048-23.231263-105.817793-52.057489-105.817793-70.301936s32.718375-47.070673 105.817793-70.301936c34.177931-10.946668 73.342677-19.582373 116.034683-25.785485 15.933484-2.310963 24.934078-19.460744 17.757929-33.813042-4.621927-9.243853-14.473928-14.352298-24.569189-12.892743-44.273192 6.568001-85.262383 15.690224-120.899869 27.001782-40.137784 12.771113-72.126381 27.974819-94.871125 45.002969C90.553272 742.427367 76.444233 766.266778 76.444233 792.417152s14.109039 49.989785 41.962229 70.910084c22.744744 17.14978 54.611712 32.231857 94.871124 45.002969 80.032308 25.542226 186.09336 39.529635 298.722414 39.529636s218.690106-13.987409 298.722414-39.529636c40.137784-12.771113 72.126381-27.974819 94.871124-45.002969 27.853189-20.920299 41.962228-44.75971 41.962229-70.910084s-14.109039-50.111415-41.962229-71.031714z" fill="#d4237a" /><path d="M371.031239 644.63713l22.379855 45.367859 40.624302 81.978382c14.838817 30.89393 47.922081 50.962822 84.410975 50.962822 36.002376 0 69.328899-19.825632 84.654235-50.597933l40.016154-81.126975 22.258225-45.124599 105.817793-214.676327c12.771113-25.785485 18.730966-55.706378 18.730966-93.776458 0-143.279724-121.751277-259.922556-271.234113-259.922556-149.604466 0-271.234113 116.521202-271.234114 259.922556 0 38.191709 5.959853 67.990973 18.730966 93.776458L371.031239 644.63713z m147.171873-454.286732c84.532605 0 153.253356 65.923269 153.253356 147.171873 0 81.126975-68.84238 147.171873-153.253356 147.171873s-153.253356-65.923269-153.253355-147.171873c0-81.005345 68.720751-147.171873 153.253355-147.171873z" fill="#d4237a" /><path d="M324.325454 747.779071c14.960447-4.743556 31.380449-8.878964 49.016748-12.284594 9.973631-1.946074 15.325336-12.892743 10.946668-22.014966-3.162371-6.203112-9.973631-9.608742-16.784891-8.270816-18.244447 3.648889-35.272598 7.905927-50.719563 12.771113-26.272004 8.392446-47.070673 18.244447-61.90949 29.434374-18.244447 13.62252-27.366671 29.191115-27.366671 46.340896 0 17.028151 9.243853 32.718375 27.366671 46.340895 14.838817 11.189928 35.637487 21.041929 61.90949 29.434375 52.300748 16.663262 121.386388 25.785485 194.850695 25.785485 73.464307 0 142.671576-9.122224 194.850695-25.785485 26.272004-8.392446 46.949044-18.244447 61.90949-29.434375 18.244447-13.62252 27.366671-29.191115 27.366671-46.340895 0-17.028151-9.243853-32.718375-27.366671-46.340896-14.838817-11.189928-35.637487-21.041929-61.90949-29.434374-12.771113-4.135408-26.515263-7.662668-41.110821-10.825039-6.93289-1.459556-13.86578 1.946074-17.02815 8.270816-4.500297 9.000594 0.729778 19.704003 10.581779 21.893336 14.352298 3.040741 27.60993 6.568001 40.137783 10.46015 47.678822 15.203706 69.08564 33.934672 69.08564 45.976007 0 11.919705-21.406818 30.772301-69.08564 45.976006-49.868155 15.811854-116.399572 24.569189-187.309656 24.569189s-137.441501-8.757335-187.309657-24.569189C276.646633 824.649008 255.239815 805.796413 255.239815 793.876707c0-12.041335 21.406818-30.89393 69.085639-46.097636z" fill="#d4237a" /></svg>