<?xml version="1.0" standalone="no"?><!DOCTYPE svg PUBLIC "-//W3C//DTD SVG 1.1//EN" "http://www.w3.org/Graphics/SVG/1.1/DTD/svg11.dtd"><svg class="icon" width="64px" height="64.00px" viewBox="0 0 1024 1024" version="1.1" xmlns="http://www.w3.org/2000/svg"><path d="M512 0C310.0262 0 146.290939 163.735261 146.290939 365.709061s365.18244 658.290939 365.18244 658.290939S877.709061 567.682862 877.709061 365.709061 713.9738 0 512 0zM321.831288 321.823974l73.141812-131.655262 29.256725 14.628362-73.141812 117.0269 43.885087 0 43.885087-58.51345 29.256725 14.628362c0 0-29.505407 44.236168-54.285853 81.436094C395.850802 386.335052 380.344738 409.594149 380.344738 409.594149l58.51345 0 14.628362 29.256725-102.398537 14.628362-14.628362-29.256725 43.885087-73.141812-58.51345 0L321.831288 321.823974zM336.459651 541.249411l-14.628362-29.256725 131.655262-29.256725 14.628362 29.256725L336.459651 541.249411zM658.283625 555.877773l-175.540349-29.256725 29.256725-29.256725 175.540349 29.256725L658.283625 555.877773zM526.628362 438.850874l29.256725-29.256725 117.0269 43.885087-29.256725 29.256725L526.628362 438.850874zM702.168712 424.222511c0 0-27.42818-8.235768-43.885087-14.628362s-58.51345-29.256725-58.51345-29.256725l-29.256725 0c0 0-37.492493 18.285453-58.51345 29.256725s-43.885087 14.628362-43.885087 14.628362l-14.628362-29.256725c0 0 13.721404-0.921587 43.885087-14.628362s58.51345-29.256725 58.51345-29.256725l-43.885087-58.51345-29.256725 58.51345-29.256725-29.256725c0 0 32.460336-47.088699 43.885087-73.141812s29.256725-58.51345 29.256725-58.51345l29.256725 14.628362-14.628362 29.256725 160.911987 0 0 29.256725-87.770175 87.770175c0 0 37.492493 20.113998 58.51345 29.256725s43.885087 14.628362 43.885087 14.628362L702.168712 424.222511zM526.628362 263.310524l58.51345 73.141812 73.141812-73.141812L526.628362 263.310524z" fill="#d81e06" /></svg>