<?xml version="1.0" standalone="no"?><!DOCTYPE svg PUBLIC "-//W3C//DTD SVG 1.1//EN" "http://www.w3.org/Graphics/SVG/1.1/DTD/svg11.dtd"><svg class="icon" width="64px" height="64.00px" viewBox="0 0 1024 1024" version="1.1" xmlns="http://www.w3.org/2000/svg"><path d="M283.648 239.104c-1.024 0.512-1.536 1.024-2.56 1.536 3.072-1.536 3.584-2.048 2.56-1.536zM218.624 487.424l-0.512 0.512c-0.512 0.512-1.024 1.024-1.536 2.048 0 0 0 0.512-0.512 0.512 2.56-2.56 2.56-3.072 2.56-3.072zM429.568 777.728c-1.536 0-6.144 1.024 0 0z" fill="#d81e06" /><path d="M499.712 964.096s-317.44-404.992-317.44-578.56 142.336-314.368 317.44-314.368 317.44 140.8 317.44 314.368-317.44 578.56-317.44 578.56z m-3.584-712.192c-74.752 0-135.168 59.904-135.168 133.632s60.416 133.632 135.168 133.632 135.168-59.904 135.168-133.632c0-73.728-60.416-133.632-135.168-133.632z" fill="#d81e06" /></svg>