<?xml version="1.0" standalone="no"?><!DOCTYPE svg PUBLIC "-//W3C//DTD SVG 1.1//EN" "http://www.w3.org/Graphics/SVG/1.1/DTD/svg11.dtd"><svg class="icon" width="64px" height="64.00px" viewBox="0 0 1024 1024" version="1.1" xmlns="http://www.w3.org/2000/svg"><path d="M512 0C310.0262 0 146.290939 163.735261 146.290939 365.709061s365.18244 658.290939 365.18244 658.290939S877.709061 567.682862 877.709061 365.709061 713.9738 0 512 0zM526.628362 307.195611l131.655262 0 0-73.141812-131.655262 0 0-29.256725 160.911987 0 0 146.283625-29.256725 0 0-14.628362-102.398537 0c0 0 0 71.313267 0 87.770175s5.485636 29.256725 14.628362 29.256725 55.777946 0 73.141812 0 29.256725-10.064313 29.256725-29.256725 0-43.885087 0-43.885087l29.256725 0c0 0 0 42.978129 0 58.51345s-20.113998 43.885087-43.885087 43.885087-67.656176 0-87.770175 0-43.885087-28.349766-43.885087-58.51345S526.628362 307.195611 526.628362 307.195611zM716.797074 555.877773c0 0-220.347024 0-248.682162 0s-102.398537-58.51345-102.398537-58.51345c-5.485636 32.006857-29.256725 58.51345-29.256725 58.51345l-14.628362-29.256725c0 0 29.256725-49.370723 29.256725-73.141812s0-73.141812 0-73.141812l29.256725 0c0 0 0 60.341995 0 73.141812s43.885087 43.885087 43.885087 43.885087L424.229825 351.080699l-102.398537 0 0-29.256725 87.770175 0 0-58.51345-73.141812 0 0-29.256725 73.141812 0 0-58.51345 29.256725 0 0 58.51345 58.51345 0 0 29.256725-58.51345 0 0 58.51345 73.141812 0 0 29.256725-58.51345 0 0 58.51345 58.51345 0 0 29.256725-58.51345 0 0 73.141812c0 0 1.828545 14.628362 43.885087 14.628362s219.425437 0 219.425437 0L716.797074 555.877773z" fill="#1296db" /></svg>